<?xml version="1.0" standalone="no"?>
<!DOCTYPE svg PUBLIC "-//W3C//DTD SVG 20010904//EN"
 "http://www.w3.org/TR/2001/REC-SVG-20010904/DTD/svg10.dtd">
<svg version="1.0" xmlns="http://www.w3.org/2000/svg"
 width="512.000000pt" height="512.000000pt" viewBox="0 0 512.000000 512.000000"
 preserveAspectRatio="xMidYMid meet">
<metadata>
Created by potrace 1.14, written by Peter Selinger 2001-2017
</metadata>
<g transform="translate(0.000000,512.000000) scale(0.100000,-0.100000)"
fill="#000000" stroke="none">
<path d="M733 4492 c-40 -6 -60 -44 -62 -121 -1 -38 -4 -80 -6 -93 -2 -12 -6
-45 -10 -71 -49 -361 -258 -692 -580 -922 -79 -57 -93 -97 -51 -143 32 -36 61
-33 134 16 37 24 91 65 120 89 28 25 52 43 53 41 3 -10 5 -655 1 -665 -2 -8
-46 -12 -145 -12 -137 -1 -143 -2 -166 -26 -22 -21 -24 -28 -15 -62 6 -28 17
-42 40 -53 29 -14 30 -16 30 -87 0 -70 -1 -72 -29 -84 -34 -14 -50 -51 -42
-91 12 -52 31 -55 362 -54 l303 1 1 -25 c1 -30 1 -406 0 -435 -1 -15 -9 -21
-28 -23 -15 -1 -37 -11 -48 -22 -18 -19 -20 -34 -21 -162 -1 -136 0 -142 22
-165 13 -13 30 -23 39 -23 12 0 15 -7 13 -26 -3 -23 -8 -28 -42 -31 -22 -2
-65 -13 -97 -23 -59 -20 -66 -24 -186 -96 -82 -50 -141 -71 -208 -75 -85 -4
-122 -35 -112 -92 4 -24 34 -57 51 -57 21 0 23 -13 22 -147 -1 -77 3 -123 9
-124 86 -8 182 24 315 104 105 64 175 89 263 91 143 5 226 -20 362 -109 119
-77 249 -104 390 -80 71 12 138 43 255 115 92 58 155 75 275 74 122 -1 174
-18 313 -102 121 -74 186 -94 301 -94 118 0 179 19 316 101 128 76 174 92 289
96 128 4 212 -22 339 -106 95 -63 186 -91 297 -91 121 0 190 21 307 95 123 78
184 98 308 100 128 1 182 -15 310 -92 55 -34 127 -69 160 -80 60 -20 154 -33
156 -22 1 3 2 64 3 134 l1 128 32 15 c34 17 50 56 38 94 -9 28 -56 50 -107 50
-68 0 -135 26 -248 94 -109 67 -184 94 -282 105 -5 1 -8 11 -8 24 0 15 11 27
32 37 42 19 47 41 45 195 -2 138 -12 160 -71 168 l-29 3 -1 237 -1 237 35 1
c19 0 159 1 310 2 300 2 313 5 325 58 9 39 -9 75 -44 87 -25 8 -26 12 -26 83
0 72 1 74 30 89 21 11 33 26 39 53 9 34 7 41 -16 64 -25 25 -29 25 -169 27
l-144 1 0 338 c0 185 2 337 5 337 3 0 25 -19 50 -41 25 -22 75 -60 111 -84 78
-54 117 -58 148 -19 42 53 29 80 -72 151 -258 182 -462 478 -538 784 -23 95
-26 115 -37 262 -12 157 -3 151 -244 152 -198 1 -242 -5 -257 -34 -5 -9 -12
-54 -15 -101 -10 -126 -16 -166 -38 -260 -123 -512 -521 -904 -1041 -1025
-104 -24 -171 -30 -322 -29 -294 3 -565 96 -801 274 -91 70 -236 212 -270 266
-10 16 -25 38 -35 49 -32 37 -119 200 -149 276 -58 152 -86 284 -94 450 -4 85
-15 114 -48 125 -22 8 -360 12 -405 6z m535 -887 c24 -38 57 -86 73 -106 l29
-37 0 -426 0 -427 -92 3 -93 3 -1 567 -1 567 20 -37 c11 -20 40 -68 65 -107z
m2668 -422 l-1 -568 -92 -1 -93 -1 0 423 0 423 56 78 c31 43 73 108 93 145 20
37 36 68 37 68 0 0 0 -255 0 -567z m-3263 440 c-1 -116 -1 -116 28 -145 16
-16 33 -27 39 -23 6 4 10 -14 10 -48 0 -50 -2 -55 -25 -61 -49 -12 -53 -36
-53 -366 0 -168 -1 -320 -1 -337 l-1 -33 -92 3 -91 2 -1 420 -1 420 30 40 c26
34 49 70 142 223 7 12 14 22 16 22 1 0 1 -52 0 -117z m3909 -96 l53 -72 -2
-405 c0 -223 -2 -413 -2 -423 -1 -15 -12 -17 -91 -15 l-90 1 -1 39 c-1 55 0
1033 0 1066 1 22 8 15 41 -46 22 -40 63 -105 92 -145z m-2994 -285 c31 -27 78
-64 105 -82 l47 -33 0 -258 0 -258 -109 0 -109 0 -1 340 c0 186 3 339 5 339 3
0 31 -22 62 -48z m2009 -289 l-2 -338 -107 -2 -108 -1 0 258 0 259 48 32 c26
18 73 54 105 81 32 26 60 48 62 48 2 0 2 -152 2 -337z m-1514 13 c25 -6 27
-10 28 -59 0 -62 0 -231 0 -269 l-1 -27 -107 2 -108 2 -2 200 c-1 110 0 205 2
212 3 8 29 1 82 -21 43 -18 90 -36 106 -40z m1144 -145 l0 -209 -109 0 -108 1
0 171 0 171 103 40 c56 23 105 40 108 38 3 -1 6 -97 6 -212z m-877 84 c25 -3
63 -8 84 -10 22 -3 42 -9 45 -14 5 -8 6 -171 2 -248 -1 -22 -4 -23 -106 -22
-58 0 -106 4 -106 7 -4 19 -5 288 -1 295 2 4 11 6 20 3 10 -3 37 -7 62 -11z
m502 -2 c2 -10 4 -79 3 -153 l0 -135 -110 0 -109 0 -1 128 c0 71 3 133 6 139
4 6 30 12 58 15 28 2 70 8 94 12 23 5 45 9 48 10 4 1 9 -7 11 -16z m1064 -752
c21 -1 21 -4 21 -240 0 -212 -2 -238 -16 -236 -28 4 -70 -24 -78 -53 -4 -15
-7 -114 -6 -220 0 -170 2 -195 18 -212 10 -11 26 -22 36 -25 15 -5 19 -16 19
-55 0 -45 -3 -50 -25 -56 -14 -4 -65 -5 -113 -2 -95 4 -129 18 -292 114 -102
60 -156 75 -283 79 -81 3 -122 -1 -170 -14 -119 -34 -155 -65 -143 -122 5 -26
2 -31 -29 -46 -32 -15 -36 -15 -53 0 -23 21 -52 21 -116 2 -63 -19 -188 -19
-252 0 -27 8 -83 35 -124 61 -162 101 -268 132 -414 121 -120 -9 -189 -34
-312 -113 -107 -68 -160 -85 -271 -84 -102 1 -103 2 -104 19 0 9 -2 29 -3 45
-2 30 16 56 38 56 30 0 39 48 40 227 2 240 -3 259 -74 273 l-25 5 -1 235 c0
129 3 237 7 240 5 4 2629 5 2725 1z"/>
</g>
</svg>
