<svg id="Camada_1" data-name="Camada 1" xmlns="http://www.w3.org/2000/svg" viewBox="0 0 118.09 145.04"><defs><style>.cls-1{fill:#565656;}</style></defs><path class="cls-1" d="M534.56,186.92a1.79,1.79,0,0,1-1,3,25.8,25.8,0,0,0-22.2,22.69,1.78,1.78,0,0,1-2.48,1.43,25.79,25.79,0,0,0-36,20.73,1.77,1.77,0,0,1-2.47,1.43,25.78,25.78,0,0,0-31.24,8.45,1.79,1.79,0,0,1-3.15-.51c-7.94-24,3.15-52,27.69-66.18S517.7,168.23,534.56,186.92Z" transform="translate(-433.44 -169.65)"/><path class="cls-1" d="M540.61,196.68c5.43,9.42,7.45,23.93,5.17,37-2.07,11.75-8.43,28-27,38.74l-1,.57c-18.62,10.72-35.88,8.07-47.09,3.95-12.43-4.56-24-13.6-29.39-23a1.45,1.45,0,0,1,.72-2.09,1.55,1.55,0,0,1,1.85.75c7.93,13.64,32.21,29.83,58.31,23.55a3.29,3.29,0,0,0,.32-6.23c-8.25-3.41-18.53-10.38-26.75-24.61a1.54,1.54,0,0,1,.28-2,1.46,1.46,0,0,1,2.17.43c8.52,14.8,19.56,21.34,27.68,24.22a11,11,0,0,0,14.52-8.4c1.57-8.46,1.44-21.23-7-36a1.53,1.53,0,0,1,.3-2,1.45,1.45,0,0,1,2.16.43c8.23,14.29,9.11,26.72,7.92,35.6a3.28,3.28,0,0,0,5.6,2.77C547.85,241,546,211.77,538.1,198.13a1.45,1.45,0,1,1,2.51-1.45Z" transform="translate(-433.44 -169.65)"/><rect class="cls-1" x="511.69" y="274.83" width="36.74" height="36.74" rx="9.88" transform="translate(-509.04 134.05) rotate(-29.94)"/></svg>