<svg id="Camada_1" data-name="Camada 1" xmlns="http://www.w3.org/2000/svg" viewBox="0 0 27.39 8.78"><defs><style>.cls-1{fill:#3b5ba6;}</style></defs><path class="cls-1" d="M416.12,299.7l-2.89-5a1.9,1.9,0,0,0-3.28,0l-2.89,5a1.89,1.89,0,0,0,1.64,2.83h5.78A1.89,1.89,0,0,0,416.12,299.7Z" transform="translate(-406.81 -293.75)"/><path class="cls-1" d="M425.29,296.46l2.77,4.79a1.81,1.81,0,0,0,3.13,0l2.76-4.79a1.81,1.81,0,0,0-1.57-2.71h-5.52A1.81,1.81,0,0,0,425.29,296.46Z" transform="translate(-406.81 -293.75)"/></svg>