<svg id="Camada_1" data-name="Camada 1" xmlns="http://www.w3.org/2000/svg" viewBox="0 0 220.34 220.34"><defs><style>.cls-1{fill:#8247e5;}.cls-2{fill:#fff;}</style></defs><circle class="cls-1" cx="110.17" cy="110.17" r="110.17"/><path class="cls-2" d="M523,305.55a14.83,14.83,0,0,1-7.12-1.83L489,289A14.86,14.86,0,0,1,481.21,276v-9.17l15.8-9.2v17.82l26,14.19,24.89-14.11v-30l-24.7-12.93-58.83,32.87a14.86,14.86,0,0,1-14.91-.24l-26.06-15.68a14.93,14.93,0,0,1-7.19-12.73v-27a14.94,14.94,0,0,1,7.38-12.85l25.89-15.06a14.88,14.88,0,0,1,15.08.08l25.2,15A14.93,14.93,0,0,1,497,209.73v9l-15.8,7.92V210.27l-24.27-14.46L432,210.32v25.93l25.13,15.12,58.8-32.86a14.86,14.86,0,0,1,14.15-.19l25.64,13.44a14.81,14.81,0,0,1,8,13.16V276A14.91,14.91,0,0,1,556.16,289L530.34,303.6A14.82,14.82,0,0,1,523,305.55Z" transform="translate(-379.77 -132.53)"/></svg>